<?xml version="1.0" encoding="UTF-8"?>
<svg width="136px" height="51px" viewBox="0 0 136 51" version="1.1" xmlns="http://www.w3.org/2000/svg" xmlns:xlink="http://www.w3.org/1999/xlink">
    <!-- Generator: Sketch 48.2 (47327) - http://www.bohemiancoding.com/sketch -->
    <title>Logo-example-6</title>
    <desc>Created with Sketch.</desc>
    <defs></defs>
    <g id="Home---Clasic" stroke="none" stroke-width="1" fill="none" fill-rule="evenodd" transform="translate(-1171.000000, -5548.000000)">
        <g id="Group-38" transform="translate(80.000000, 4941.000000)" fill="#6A7489">
            <g id="Clients" transform="translate(2.000000, 0.500000)">
                <g id="Group-39" transform="translate(20.000000, 606.000000)">
                    <g id="Logo-example-6" transform="translate(1069.000000, 1.000000)">
                        <polyline id="Fill-170" points="36.3453846 49.7138462 54.5180769 49.7138462 36.3453846 0 18.1726923 0 0 49.7138462 9.08615385 49.7138462 5.21807692 39.1330769 18.8676923 1.90153846 36.3453846 49.7138462"></polyline>
                        <path d="M75.944,15.43 C76.6640036,15.6820013 77.227998,16.0749973 77.636,16.609 C78.044002,17.1430027 78.248,17.7879962 78.248,18.544 C78.248,19.6480055 77.8040044,20.499997 76.916,21.1 C76.0279956,21.700003 74.7440084,22 73.064,22 L66.26,22 L66.26,9.4 L72.704,9.4 C74.312008,9.4 75.5359958,9.69699703 76.376,10.291 C77.2160042,10.885003 77.636,11.685995 77.636,12.694 C77.636,13.294003 77.4890015,13.8309976 77.195,14.305 C76.9009985,14.7790024 76.4840027,15.1539986 75.944,15.43 Z M69.788,11.974 L69.788,14.404 L72.236,14.404 C73.436006,14.404 74.036,13.9960041 74.036,13.18 C74.036,12.375996 73.436006,11.974 72.236,11.974 L69.788,11.974 Z M72.776,19.426 C74.0240062,19.426 74.648,19.0000043 74.648,18.148 C74.648,17.2959957 74.0240062,16.87 72.776,16.87 L69.788,16.87 L69.788,19.426 L72.776,19.426 Z M85.61,18.652 L83.666,18.652 L83.666,22 L80.102,22 L80.102,9.4 L85.862,9.4 C87.0020057,9.4 87.9919958,9.58899811 88.832,9.967 C89.6720042,10.3450019 90.3199977,10.8849965 90.776,11.587 C91.2320023,12.2890035 91.46,13.1139953 91.46,14.062 C91.46,14.9740046 91.2470021,15.7689966 90.821,16.447 C90.3949979,17.1250034 89.786004,17.6559981 88.994,18.04 L91.712,22 L87.896,22 L85.61,18.652 Z M87.86,14.062 C87.86,13.4739971 87.6740019,13.0180016 87.302,12.694 C86.9299981,12.3699984 86.3780037,12.208 85.646,12.208 L83.666,12.208 L83.666,15.898 L85.646,15.898 C86.3780037,15.898 86.9299981,15.7390016 87.302,15.421 C87.6740019,15.1029984 87.86,14.6500029 87.86,14.062 Z M101.864,19.552 L96.536,19.552 L95.546,22 L91.91,22 L97.472,9.4 L100.982,9.4 L106.562,22 L102.854,22 L101.864,19.552 Z M100.82,16.924 L99.2,12.892 L97.58,16.924 L100.82,16.924 Z M119.558,9.4 L119.558,22 L116.624,22 L111.062,15.286 L111.062,22 L107.57,22 L107.57,9.4 L110.504,9.4 L116.066,16.114 L116.066,9.4 L119.558,9.4 Z M122.078,9.4 L128.036,9.4 C129.416007,9.4 130.639995,9.65799742 131.708,10.174 C132.776005,10.6900026 133.603997,11.4219953 134.192,12.37 C134.780003,13.3180047 135.074,14.4279936 135.074,15.7 C135.074,16.9720064 134.780003,18.0819953 134.192,19.03 C133.603997,19.9780047 132.776005,20.7099974 131.708,21.226 C130.639995,21.7420026 129.416007,22 128.036,22 L122.078,22 L122.078,9.4 Z M127.892,19.156 C128.972005,19.156 129.838997,18.8500031 130.493,18.238 C131.147003,17.6259969 131.474,16.7800054 131.474,15.7 C131.474,14.6199946 131.147003,13.7740031 130.493,13.162 C129.838997,12.5499969 128.972005,12.244 127.892,12.244 L125.642,12.244 L125.642,19.156 L127.892,19.156 Z M77.888,28.4 L77.888,41 L75.962,41 L69.014,32.468 L69.014,41 L66.692,41 L66.692,28.4 L68.618,28.4 L75.566,36.932 L75.566,28.4 L77.888,28.4 Z M89.444,38.084 L83.144,38.084 L81.902,41 L79.49,41 L85.16,28.4 L87.464,28.4 L93.152,41 L90.704,41 L89.444,38.084 Z M88.67,36.248 L86.294,30.74 L83.936,36.248 L88.67,36.248 Z M106.328,41 L106.31,32.648 L102.17,39.56 L101.126,39.56 L96.986,32.756 L96.986,41 L94.754,41 L94.754,28.4 L96.68,28.4 L101.684,36.752 L106.598,28.4 L108.524,28.4 L108.542,41 L106.328,41 Z M121.394,39.038 L121.394,41 L111.944,41 L111.944,28.4 L121.142,28.4 L121.142,30.362 L114.284,30.362 L114.284,33.638 L120.368,33.638 L120.368,35.564 L114.284,35.564 L114.284,39.038 L121.394,39.038 Z" id="Brand-Name"></path>
                    </g>
                </g>
            </g>
        </g>
    </g>
</svg>