<?xml version="1.0" encoding="UTF-8"?>
<svg width="151px" height="51px" viewBox="0 0 151 51" version="1.1" xmlns="http://www.w3.org/2000/svg" xmlns:xlink="http://www.w3.org/1999/xlink">
    <!-- Generator: Sketch 48.2 (47327) - http://www.bohemiancoding.com/sketch -->
    <title>Logo-example-2</title>
    <desc>Created with Sketch.</desc>
    <defs></defs>
    <g id="Home---Clasic" stroke="none" stroke-width="1" fill="none" fill-rule="evenodd" transform="translate(-311.000000, -5548.000000)">
        <g id="Group-38" transform="translate(80.000000, 4941.000000)" fill="#6A7489">
            <g id="Clients" transform="translate(2.000000, 0.500000)">
                <g id="Group-39" transform="translate(20.000000, 606.000000)">
                    <g id="Logo-example-2" transform="translate(209.000000, 1.000000)">
                        <path d="M47.2913793,13.7833333 C47.2913793,13.7833333 50.1327586,14.1971264 49.5264368,15.991954 C48.9948276,17.5655172 48.7137931,21.7327586 37.0310345,22.6166667 C25.3488506,23.4994253 19.558046,28.2482759 18.6436782,35.2034483 C17.7298851,42.1614943 23.6448276,46.8298851 30.1568966,47.3511494 C30.2126437,47.3557471 30.2678161,47.3597701 30.3235632,47.3637931 C31.4982759,47.4494253 31.5988506,49.1333333 30.4402299,49.3448276 C26.5816092,50.0482759 21.783908,50.1724138 16.612069,48.5655172 C4.88850575,44.9229885 1.14885057,36.783908 1.88850575,27.5856322 C1.88850575,27.5856322 0.792528736,29.0132184 0.256896552,31.1304598 C0.256896552,31.1304598 -0.870689655,23.7563218 2.82988506,18.6793103 C2.82988506,18.6793103 1.21034483,19.6793103 0.256896552,21.1798851 C0.256896552,21.1798851 1.47643678,15.3275862 6.8591954,11.4649425 C12.2436782,7.59770115 19.0591954,6.36896552 19.0591954,6.36896552 C19.0591954,6.36896552 19.3402299,2.78678161 24.0183908,0.385632184 C24.3568966,0.212068966 24.75,0.493678161 24.7011494,0.871264368 C24.4856322,2.54482759 24.9896552,5.2091954 26.6695402,6.49482759 C26.6695402,6.49482759 33.0695402,6.82586207 35.9132184,9.36609195 C38.758046,11.9051724 47.2913793,13.7833333 47.2913793,13.7833333 Z M47.7097701,14.9304598 L46.8212644,14.8454023 C46.8867816,15.154023 46.9810345,15.8321839 47.566092,16.2241379 C47.7568966,16.3517241 48.1649425,16.4775862 48.5051724,16.466092 C48.641954,16.195977 48.7057471,15.9586207 48.7591954,15.7925287 C48.9701149,15.1350575 47.7097701,14.9304598 47.7097701,14.9304598 Z M35.2856322,18.4367816 C31.7517241,17.5396552 21.7798851,16.5793103 16.8436782,21.2241379 C16.6,21.454023 16.3735632,21.7005747 16.1568966,21.9568966 C14.4241379,23.7770115 12.6862069,26.6097701 11.9344828,30.9505747 C11.9344828,30.9505747 12.5224138,29.9413793 13.5189655,28.6965517 C13.0775862,33.1183908 14.4908046,37.9109195 17.5155172,40.4396552 C17.5206897,40.4442529 16.0241379,38.1465517 16.8103448,33.9873563 C18.112069,27.1017241 23.5149425,22.2850575 35.1977011,21.4017241 C39.4597701,21.0787356 42.1896552,20.8224138 43.9735632,19.9063218 C43.9557471,19.9086207 38.3,19.2017241 35.2856322,18.4367816 Z" id="Combined-Shape"></path>
                        <g id="Group-4" transform="translate(57.000000, 17.000000)">
                            <path d="M24.4550575,1.30098485 L17.1750575,15.3009848 L12.1150575,15.3009848 L11.3150575,7.92098485 L7.47505747,15.3009848 L2.41505747,15.3009848 L0.735057471,1.30098485 L5.39505747,1.30098485 L6.29505747,9.28098485 L10.4550575,1.30098485 L14.7950575,1.30098485 L15.5950575,9.40098485 L19.8150575,1.30098485 L24.4550575,1.30098485 Z M30.3750575,15.6209848 C28.9483837,15.6209848 27.6983962,15.3576541 26.6250575,14.8309848 C25.5517188,14.3043155 24.7250604,13.5676562 24.1450575,12.6209848 C23.5650546,11.6743134 23.2750575,10.5876576 23.2750575,9.36098485 C23.2750575,7.73431005 23.6517204,6.28432455 24.4050575,5.01098485 C25.1583946,3.73764515 26.2050508,2.74765505 27.5450575,2.04098485 C28.8850642,1.33431465 30.4017157,0.980984848 32.0950575,0.980984848 C33.5217313,0.980984848 34.7717188,1.24431555 35.8450575,1.77098485 C36.9183962,2.29765415 37.7450546,3.03431345 38.3250575,3.98098485 C38.9050604,4.92765625 39.1950575,6.01431205 39.1950575,7.24098485 C39.1950575,8.86765965 38.8183946,10.3176451 38.0650575,11.5909848 C37.3117204,12.8643245 36.2650642,13.8543146 34.9250575,14.5609848 C33.5850508,15.267655 32.0683993,15.6209848 30.3750575,15.6209848 Z M30.7750575,11.8009848 C31.5217279,11.8009848 32.1717214,11.6076534 32.7250575,11.2209848 C33.2783936,10.8343162 33.7017227,10.3143214 33.9950575,9.66098485 C34.2883923,9.00764825 34.4350575,8.29432205 34.4350575,7.52098485 C34.4350575,6.69431405 34.1917266,6.03432065 33.7050575,5.54098485 C33.2183884,5.04764905 32.5483951,4.80098485 31.6950575,4.80098485 C30.9483871,4.80098485 30.2983936,4.99431625 29.7450575,5.38098485 C29.1917214,5.76765345 28.7683923,6.28764825 28.4750575,6.94098485 C28.1817227,7.59432145 28.0350575,8.30764765 28.0350575,9.08098485 C28.0350575,9.90765565 28.2783884,10.567649 28.7650575,11.0609848 C29.2517266,11.5543206 29.9217199,11.8009848 30.7750575,11.8009848 Z M42.2550575,1.30098485 L46.9750575,1.30098485 L44.9150575,11.6409848 L51.2350575,11.6409848 L50.4950575,15.3009848 L39.4550575,15.3009848 L42.2550575,1.30098485 Z M68.6550575,1.30098485 L59.9350575,15.3009848 L55.2950575,15.3009848 L52.1750575,1.30098485 L57.0150575,1.30098485 L58.7550575,9.46098485 L63.8150575,1.30098485 L68.6550575,1.30098485 Z M73.0350575,4.86098485 L72.7150575,6.50098485 L78.6350575,6.50098485 L77.9550575,9.90098485 L72.0150575,9.90098485 L71.6550575,11.7409848 L78.6750575,11.7409848 L77.9550575,15.3009848 L66.3150575,15.3009848 L69.1150575,1.30098485 L80.4950575,1.30098485 L79.7750575,4.86098485 L73.0350575,4.86098485 Z M85.3350575,15.6209848 C84.1217181,15.6209848 82.9817295,15.4909861 81.9150575,15.2309848 C80.8483855,14.9709835 79.9683943,14.6276536 79.2750575,14.2009848 L81.0950575,10.7209848 C82.6017317,11.5876558 84.1750493,12.0209848 85.8150575,12.0209848 C86.4150605,12.0209848 86.8750559,11.9476522 87.1950575,11.8009848 C87.5150591,11.6543174 87.6750575,11.4543194 87.6750575,11.2009848 C87.6750575,10.9609836 87.5117258,10.7676522 87.1850575,10.6209848 C86.8583892,10.4743174 86.3417277,10.314319 85.6350575,10.1409848 C84.7017195,9.90098365 83.9283939,9.65765275 83.3150575,9.41098485 C82.7017211,9.16431695 82.1650598,8.78432075 81.7050575,8.27098485 C81.2450552,7.75764895 81.0150575,7.08098905 81.0150575,6.24098485 C81.0150575,5.18764625 81.298388,4.26432215 81.8650575,3.47098485 C82.431727,2.67764755 83.2483855,2.06432035 84.3150575,1.63098485 C85.3817295,1.19764935 86.6417169,0.980984848 88.0950575,0.980984848 C89.1350627,0.980984848 90.105053,1.08431715 91.0050575,1.29098485 C91.905062,1.49765255 92.6817209,1.79431625 93.3350575,2.18098485 L91.6350575,5.62098485 C91.0883881,5.27431645 90.4850608,5.01431905 89.8250575,4.84098485 C89.1650542,4.66765065 88.4883943,4.58098485 87.7950575,4.58098485 C87.1417209,4.58098485 86.6350593,4.67431725 86.2750575,4.86098485 C85.9150557,5.04765245 85.7350575,5.26765025 85.7350575,5.52098485 C85.7350575,5.77431945 85.8983892,5.97431745 86.2250575,6.12098485 C86.5517258,6.26765225 87.0883871,6.42765065 87.8350575,6.60098485 C88.7417287,6.81431925 89.5050544,7.04098365 90.1250575,7.28098485 C90.7450606,7.52098605 91.2817219,7.89431565 91.7350575,8.40098485 C92.1883931,8.90765405 92.4150575,9.57431405 92.4150575,10.4009848 C92.4150575,11.44099 92.1283937,12.3543142 91.5550575,13.1409848 C90.9817213,13.9276554 90.1617295,14.5376493 89.0950575,14.9709848 C88.0283855,15.4043203 86.7750647,15.6209848 85.3350575,15.6209848 Z" id="WOLVES"></path>
                            <path d="M3.82,21 C4.4266697,21 4.95499775,21.099999 5.405,21.3 C5.85500225,21.500001 6.1999988,21.7866648 6.44,22.16 C6.6800012,22.5333352 6.8,22.9766641 6.8,23.49 C6.8,23.9966692 6.6800012,24.4383314 6.44,24.815 C6.1999988,25.1916685 5.85500225,25.479999 5.405,25.68 C4.95499775,25.880001 4.4266697,25.98 3.82,25.98 L2.24,25.98 L2.24,28 L0.94,28 L0.94,21 L3.82,21 Z M3.76,24.88 C4.3266695,24.88 4.7566652,24.7600012 5.05,24.52 C5.3433348,24.2799988 5.49,23.9366689 5.49,23.49 C5.49,23.0433311 5.3433348,22.7000012 5.05,22.46 C4.7566652,22.2199988 4.3266695,22.1 3.76,22.1 L2.24,22.1 L2.24,24.88 L3.76,24.88 Z M12.74,26.38 L9.24,26.38 L8.55,28 L7.21,28 L10.36,21 L11.64,21 L14.8,28 L13.44,28 L12.74,26.38 Z M12.31,25.36 L10.99,22.3 L9.68,25.36 L12.31,25.36 Z M20.27,28 L18.84,25.95 C18.7799997,25.9566667 18.6900006,25.96 18.57,25.96 L16.99,25.96 L16.99,28 L15.69,28 L15.69,21 L18.57,21 C19.1766697,21 19.7049977,21.099999 20.155,21.3 C20.6050022,21.500001 20.9499988,21.7866648 21.19,22.16 C21.4300012,22.5333352 21.55,22.9766641 21.55,23.49 C21.55,24.0166693 21.4216679,24.4699981 21.165,24.85 C20.908332,25.2300019 20.5400024,25.5133324 20.06,25.7 L21.67,28 L20.27,28 Z M20.24,23.49 C20.24,23.0433311 20.0933348,22.7000012 19.8,22.46 C19.5066652,22.2199988 19.0766695,22.1 18.51,22.1 L16.99,22.1 L16.99,24.89 L18.51,24.89 C19.0766695,24.89 19.5066652,24.7683345 19.8,24.525 C20.0933348,24.2816654 20.24,23.9366689 20.24,23.49 Z M24.42,22.1 L22.1,22.1 L22.1,21 L28.04,21 L28.04,22.1 L25.72,22.1 L25.72,28 L24.42,28 L24.42,22.1 Z M35.24,21 L35.24,28 L34.17,28 L30.31,23.26 L30.31,28 L29.02,28 L29.02,21 L30.09,21 L33.95,25.74 L33.95,21 L35.24,21 Z M42.37,26.91 L42.37,28 L37.12,28 L37.12,21 L42.23,21 L42.23,22.09 L38.42,22.09 L38.42,23.91 L41.8,23.91 L41.8,24.98 L38.42,24.98 L38.42,26.91 L42.37,26.91 Z M48.4,28 L46.97,25.95 C46.9099997,25.9566667 46.8200006,25.96 46.7,25.96 L45.12,25.96 L45.12,28 L43.82,28 L43.82,21 L46.7,21 C47.3066697,21 47.8349977,21.099999 48.285,21.3 C48.7350022,21.500001 49.0799988,21.7866648 49.32,22.16 C49.5600012,22.5333352 49.68,22.9766641 49.68,23.49 C49.68,24.0166693 49.551668,24.4699981 49.295,24.85 C49.0383321,25.2300019 48.6700024,25.5133324 48.19,25.7 L49.8,28 L48.4,28 Z M48.37,23.49 C48.37,23.0433311 48.2233348,22.7000012 47.93,22.46 C47.6366652,22.2199988 47.2066695,22.1 46.64,22.1 L45.12,22.1 L45.12,24.89 L46.64,24.89 C47.2066695,24.89 47.6366652,24.7683345 47.93,24.525 C48.2233348,24.2816654 48.37,23.9366689 48.37,23.49 Z M53.3,28.1 C52.7599973,28.1 52.2383359,28.0233341 51.735,27.87 C51.2316642,27.7166659 50.8333348,27.5133346 50.54,27.26 L50.99,26.25 C51.2766681,26.4766678 51.6283313,26.6616659 52.045,26.805 C52.4616688,26.948334 52.8799979,27.02 53.3,27.02 C53.8200026,27.02 54.2083321,26.9366675 54.465,26.77 C54.721668,26.6033325 54.85,26.3833347 54.85,26.11 C54.85,25.909999 54.7783341,25.7450006 54.635,25.615 C54.491666,25.4849993 54.3100011,25.3833337 54.09,25.31 C53.8699989,25.2366663 53.5700019,25.1533338 53.19,25.06 C52.656664,24.9333327 52.2250017,24.8066673 51.895,24.68 C51.5649984,24.5533327 51.2816679,24.3550013 51.045,24.085 C50.8083321,23.8149986 50.69,23.4500023 50.69,22.99 C50.69,22.6033314 50.794999,22.2516682 51.005,21.935 C51.2150011,21.6183317 51.5316646,21.3666676 51.955,21.18 C52.3783355,20.9933324 52.8966636,20.9 53.51,20.9 C53.9366688,20.9 54.3566646,20.9533328 54.77,21.06 C55.1833354,21.1666672 55.5399985,21.319999 55.84,21.52 L55.43,22.53 C55.1233318,22.3499991 54.803335,22.2133338 54.47,22.12 C54.136665,22.0266662 53.8133349,21.98 53.5,21.98 C52.9866641,21.98 52.6050013,22.0666658 52.355,22.24 C52.1049988,22.4133342 51.98,22.6433319 51.98,22.93 C51.98,23.130001 52.051666,23.2933327 52.195,23.42 C52.3383341,23.5466673 52.5199989,23.6466663 52.74,23.72 C52.9600011,23.7933337 53.2599981,23.8766662 53.64,23.97 C54.1600026,24.0900006 54.586665,24.2149993 54.92,24.345 C55.253335,24.4750006 55.5383322,24.673332 55.775,24.94 C56.0116679,25.206668 56.13,25.5666644 56.13,26.02 C56.13,26.4066686 56.0250011,26.7566651 55.815,27.07 C55.604999,27.3833349 55.2866688,27.6333324 54.86,27.82 C54.4333312,28.0066676 53.9133364,28.1 53.3,28.1 Z M65.43,28.11 L64.55,27.26 C63.8966634,27.8200028 63.1133379,28.1 62.2,28.1 C61.7133309,28.1 61.2766686,28.0200008 60.89,27.86 C60.5033314,27.6999992 60.2000011,27.4783347 59.98,27.195 C59.7599989,26.9116652 59.65,26.5900018 59.65,26.23 C59.65,25.7966645 59.7766654,25.4150016 60.03,25.085 C60.2833346,24.7549983 60.6966638,24.4300016 61.27,24.11 C60.9899986,23.8299986 60.7900006,23.5683345 60.67,23.325 C60.5499994,23.0816654 60.49,22.8300013 60.49,22.57 C60.49,22.0766642 60.6749982,21.6783348 61.045,21.375 C61.4150019,21.0716651 61.9066636,20.92 62.52,20.92 C63.0866695,20.92 63.5399983,21.0583319 63.88,21.335 C64.2200017,21.611668 64.39,21.9866643 64.39,22.46 C64.39,22.8200018 64.2783345,23.1399986 64.055,23.42 C63.8316656,23.7000014 63.4666692,23.9833319 62.96,24.27 L64.47,25.71 C64.6366675,25.3833317 64.7666662,24.9900023 64.86,24.53 L65.87,24.86 C65.736666,25.4800031 65.5266681,26.0133311 65.24,26.46 L66.12,27.3 L65.43,28.11 Z M62.52,21.81 C62.2466653,21.81 62.0300008,21.8783326 61.87,22.015 C61.7099992,22.1516673 61.63,22.3299989 61.63,22.55 C61.63,22.7100008 61.6733329,22.8616659 61.76,23.005 C61.8466671,23.148334 62.0133321,23.3433321 62.26,23.59 C62.660002,23.3699989 62.9383326,23.1783341 63.095,23.015 C63.2516675,22.8516658 63.33,22.6733343 63.33,22.48 C63.33,22.2733323 63.2583341,22.1100006 63.115,21.99 C62.971666,21.8699994 62.7733346,21.81 62.52,21.81 Z M62.29,27.08 C62.8700029,27.08 63.3766645,26.9033351 63.81,26.55 L61.96,24.78 C61.559998,25.0000011 61.2783341,25.2116656 61.115,25.415 C60.9516659,25.6183343 60.87,25.8466654 60.87,26.1 C60.87,26.3933348 60.9999987,26.6299991 61.26,26.81 C61.5200013,26.9900009 61.8633312,27.08 62.29,27.08 Z M73.24,28.1 C72.5333298,28.1 71.8950028,27.9450015 71.325,27.635 C70.7549972,27.3249984 70.308335,26.8966694 69.985,26.35 C69.661665,25.8033306 69.5,25.1866701 69.5,24.5 C69.5,23.8133299 69.6633317,23.1966694 69.99,22.65 C70.3166683,22.1033306 70.7649971,21.6750015 71.335,21.365 C71.9050029,21.0549984 72.5433298,20.9 73.25,20.9 C73.8233362,20.9 74.3466643,20.999999 74.82,21.2 C75.2933357,21.400001 75.6933317,21.6899981 76.02,22.07 L75.18,22.86 C74.6733308,22.3133306 74.0500037,22.04 73.31,22.04 C72.8299976,22.04 72.4000019,22.1449989 72.02,22.355 C71.6399981,22.565001 71.3433344,22.8566648 71.13,23.23 C70.9166656,23.6033352 70.81,24.0266643 70.81,24.5 C70.81,24.9733357 70.9166656,25.3966648 71.13,25.77 C71.3433344,26.1433352 71.6399981,26.4349989 72.02,26.645 C72.4000019,26.855001 72.8299976,26.96 73.31,26.96 C74.0500037,26.96 74.6733308,26.6833361 75.18,26.13 L76.02,26.93 C75.6933317,27.3100019 75.291669,27.599999 74.815,27.8 C74.3383309,28.000001 73.8133362,28.1 73.24,28.1 Z M80.54,28.1 C79.8266631,28.1 79.1833362,27.9450015 78.61,27.635 C78.0366638,27.3249984 77.5866683,26.8950027 77.26,26.345 C76.9333317,25.7949972 76.77,25.1800034 76.77,24.5 C76.77,23.8199966 76.9333317,23.2050027 77.26,22.655 C77.5866683,22.1049972 78.0366638,21.6750015 78.61,21.365 C79.1833362,21.0549984 79.8266631,20.9 80.54,20.9 C81.2533369,20.9 81.8966638,21.0549984 82.47,21.365 C83.0433362,21.6750015 83.4933317,22.1033306 83.82,22.65 C84.1466683,23.1966694 84.31,23.8133299 84.31,24.5 C84.31,25.1866701 84.1466683,25.8033306 83.82,26.35 C83.4933317,26.8966694 83.0433362,27.3249984 82.47,27.635 C81.8966638,27.9450015 81.2533369,28.1 80.54,28.1 Z M80.54,26.96 C81.006669,26.96 81.4266648,26.855001 81.8,26.645 C82.1733352,26.4349989 82.4666656,26.1416685 82.68,25.765 C82.8933344,25.3883314 83,24.966669 83,24.5 C83,24.033331 82.8933344,23.6116685 82.68,23.235 C82.4666656,22.8583314 82.1733352,22.565001 81.8,22.355 C81.4266648,22.1449989 81.006669,22.04 80.54,22.04 C80.073331,22.04 79.6533352,22.1449989 79.28,22.355 C78.9066648,22.565001 78.6133344,22.8583314 78.4,23.235 C78.1866656,23.6116685 78.08,24.033331 78.08,24.5 C78.08,24.966669 78.1866656,25.3883314 78.4,25.765 C78.6133344,26.1416685 78.9066648,26.4349989 79.28,26.645 C79.6533352,26.855001 80.073331,26.96 80.54,26.96 Z" id="partners-&amp;-co"></path>
                        </g>
                    </g>
                </g>
            </g>
        </g>
    </g>
</svg>