<?xml version="1.0" encoding="UTF-8"?>
<svg width="180px" height="51px" viewBox="0 0 180 51" version="1.1" xmlns="http://www.w3.org/2000/svg" xmlns:xlink="http://www.w3.org/1999/xlink">
    <!-- Generator: Sketch 48.2 (47327) - http://www.bohemiancoding.com/sketch -->
    <title>Logo-example-5</title>
    <desc>Created with Sketch.</desc>
    <defs></defs>
    <g id="Home---Clasic" stroke="none" stroke-width="1" fill="none" fill-rule="evenodd" transform="translate(-938.000000, -5548.000000)">
        <g id="Group-38" transform="translate(80.000000, 4941.000000)" fill="#6A7489">
            <g id="Clients" transform="translate(2.000000, 0.500000)">
                <g id="Group-39" transform="translate(20.000000, 606.000000)">
                    <g id="Logo-example-5" transform="translate(836.000000, 1.000000)">
                        <g id="Group-6">
                            <path d="M43.229359,49.582906 C41.4336325,49.582906 39.7447436,48.8833333 38.4759402,47.6141026 C37.205,46.3461538 36.5062821,44.658547 36.5062821,42.8619658 C36.5062821,41.0683761 37.205,39.3807692 38.4725214,38.1136752 C39.7426068,36.8435897 41.4314957,36.1440171 43.2267949,36.1440171 C45.022094,36.1440171 46.7092735,36.841453 47.9772222,38.1106838 C50.597735,40.7320513 50.597735,44.9970085 47.9772222,47.617094 C46.7092735,48.8854701 45.0229487,49.582906 43.229359,49.582906" id="Fill-1"></path>
                            <path d="M6.72307692,13.7503419 C4.92735043,13.7503419 3.23888889,13.0507692 1.96880342,11.7806838 C0.69957265,10.512735 0,8.82512821 0,7.02940171 C0,5.23452991 0.697863248,3.54777778 1.96581197,2.28111111 C3.23675214,1.01017094 4.92606838,0.310598291 6.72222222,0.310598291 C8.51581197,0.310598291 10.2034188,1.00888889 11.4705128,2.27683761 C12.741453,3.54692308 13.4410256,5.23538462 13.4410256,7.03025641 C13.4410256,8.82598291 12.741453,10.5135897 11.4713675,11.7836752 C10.2034188,13.0520513 8.51666667,13.7503419 6.72307692,13.7503419" id="Fill-3"></path>
                            <path d="M42.929359,13.5535043 C41.1323504,13.5535043 39.4451709,12.8539316 38.1759402,11.5847009 C35.5567094,8.96461538 35.5545726,4.70179487 38.172094,2.0834188 C39.4421795,0.813333333 41.1302137,0.112905983 42.9272222,0.112905983 C44.722094,0.112905983 46.4097009,0.812051282 47.6789316,2.08128205 C50.297735,4.70051282 50.297735,8.96547009 47.6789316,11.5889744 C46.4105556,12.8547863 44.7229487,13.5535043 42.929359,13.5535043" id="Fill-5"></path>
                            <path d="M6.89782051,49.582906 C5.10209402,49.582906 3.41363248,48.8833333 2.14226496,47.6141026 C0.873461538,46.3452991 0.17517094,44.658547 0.176025641,42.8628205 C0.176025641,41.0683761 0.876880342,39.3807692 2.14653846,38.1115385 C2.41235043,37.8440171 2.71192308,37.5991453 3.09311966,37.3423077 C3.20764957,37.2619658 3.31363248,37.1987179 3.42303419,37.1320513 C3.67175214,36.9893162 3.91961538,36.8589744 4.15081197,36.7529915 C4.27645299,36.6970085 4.40594017,36.6384615 4.54226496,36.5867521 C4.78371795,36.4970085 5.05337607,36.4166667 5.36149573,36.3440171 C5.42260684,36.3273504 5.47688034,36.3128205 5.53200855,36.2970085 C5.56662393,36.2876068 5.59995726,36.2764957 5.635,36.2679487 L7.13115385,36.165812 C7.32089744,36.174359 7.52388889,36.1982906 7.74012821,36.2260684 L7.82559829,36.2380342 C7.87645299,36.2440171 7.94525641,36.2491453 8.01405983,36.2534188 L8.07431624,36.2576923 L8.14311966,36.2709402 L8.20252137,36.2709402 C8.31192308,36.2752137 8.42089744,36.2773504 8.52944444,36.2773504 C11.1080769,36.2773504 13.6533761,35.1790598 15.5136325,33.2653846 C17.3657692,31.3602564 18.3858547,28.7974359 18.3127778,26.2324786 L18.310641,26.1564103 L18.2965385,26.0769231 C18.2824359,26.0055556 18.2785897,25.9324786 18.2734615,25.8606838 C18.2674786,25.774359 18.2597863,25.6888889 18.2495299,25.6025641 L18.2328632,25.4517094 C18.2183333,25.3222222 18.2038034,25.1965812 18.1952564,25.067094 L18.3097863,23.5662393 C18.3170513,23.5286325 18.3307265,23.4944444 18.3409829,23.4581197 L18.367906,23.3653846 C18.4371368,23.0811966 18.510641,22.7957265 18.6183333,22.5200855 C18.6734615,22.3628205 18.726453,22.2474359 18.7837179,22.1286325 C18.9029487,21.8662393 19.0268803,21.6277778 19.1730342,21.3833333 C19.2362821,21.2769231 19.2978205,21.1696581 19.3708974,21.065812 C19.642265,20.6700855 19.8892735,20.367094 20.1452564,20.1111111 C21.4144872,18.8418803 23.1016667,18.1435897 24.8995299,18.1435897 C26.6944017,18.1435897 28.3837179,18.8410256 29.6538034,20.1089744 C32.2713248,22.7294872 32.269188,26.9935897 29.6478205,29.6145299 C29.3832906,29.8799145 29.0824359,30.1239316 28.7003846,30.3850427 C28.5888462,30.4611111 28.4828632,30.524359 28.376453,30.5871795 C28.135,30.7316239 27.8914103,30.8598291 27.6491026,30.9713675 C27.517906,31.0303419 27.3867094,31.0910256 27.2597863,31.1376068 C27.0025214,31.2333333 26.7298718,31.3149573 26.443547,31.3790598 L26.2824359,31.4239316 C26.2456838,31.4346154 26.2102137,31.4457265 26.1738889,31.4551282 L24.6636325,31.5623932 C24.4862821,31.5551282 24.300812,31.5311966 24.1042308,31.5059829 L23.9700427,31.4893162 C23.9251709,31.4820513 23.8546581,31.4769231 23.7837179,31.4730769 L23.7307265,31.4679487 L23.6533761,31.4529915 L23.5931197,31.4529915 C23.4828632,31.4491453 23.3743162,31.4478632 23.2649145,31.4478632 C20.6862821,31.4478632 18.1418376,32.5452991 16.2828632,34.458547 C14.4298718,36.3645299 13.4097863,38.9299145 13.4828632,41.4948718 L13.4845726,41.5713675 L13.4991026,41.6470085 C13.5127778,41.7200855 13.5157692,41.7918803 13.5221795,41.8645299 C13.5281624,41.9508547 13.5358547,42.0363248 13.5461111,42.1217949 C13.5491026,42.1726496 13.559359,42.2653846 13.5708974,42.3559829 C13.5824359,42.4589744 13.5961111,42.5589744 13.5961111,42.6619658 L13.5961111,42.6987179 L13.4875641,44.1371795 C13.4807265,44.167094 13.4324359,44.332906 13.4187607,44.3850427 C13.3461111,44.6952991 13.2640598,44.9700855 13.1721795,45.2166667 C13.1221795,45.3542735 13.0713248,45.4726496 13.0119231,45.5965812 C12.8952564,45.8517094 12.7683333,46.0965812 12.6247436,46.3452991 C12.5610684,46.4470085 12.4862821,46.5666667 12.4102137,46.6816239 C12.160641,47.0435897 11.9127778,47.3487179 11.6469658,47.6153846 C10.3811538,48.8833333 8.69397436,49.582906 6.89867521,49.582906 L6.89782051,49.582906 Z" id="Fill-7"></path>
                            <path d="M25.0454701,49.582906 C23.2484615,49.582906 21.56,48.8833333 20.2899145,47.6132479 C19.0206838,46.3444444 18.3223932,44.6576923 18.3215385,42.8619658 C18.3202564,41.0683761 19.0189744,39.3816239 20.2869231,38.115812 C20.5458974,37.8555556 20.8394872,37.6162393 21.2416239,37.3380342 C21.3411966,37.2705128 21.4484615,37.2051282 21.5608547,37.1405983 C21.8078632,36.992735 22.0450427,36.8675214 22.2916239,36.7542735 C22.4228205,36.6948718 22.5510256,36.6354701 22.6813675,36.5867521 C22.9309402,36.4948718 23.202735,36.4149573 23.4911966,36.3512821 C23.4911966,36.3512821 23.7275214,36.2824786 23.7578632,36.2752137 L25.2775214,36.1641026 C25.4565812,36.1722222 25.6501709,36.1982906 25.8523077,36.2239316 L25.9647009,36.2388889 C26.0394872,36.2461538 26.1018803,36.2525641 26.1647009,36.2534188 C26.1894872,36.2551282 26.2147009,36.2551282 26.2386325,36.2576923 L26.2864957,36.2636752 L26.3497436,36.2700855 C26.4608547,36.2730769 26.5736752,36.2764957 26.6852137,36.2764957 C29.2587179,36.2752137 31.7997436,35.1790598 33.6557265,33.2675214 C35.5078632,31.3636752 36.5283761,28.7974359 36.4552991,26.2324786 L36.4458974,25.9192308 L36.4176923,25.8846154 C36.4164103,25.8739316 36.4164103,25.8615385 36.4155556,25.85 C36.4117094,25.7773504 36.4074359,25.7034188 36.4001709,25.6294872 L36.3749573,25.4141026 C36.3612821,25.2957265 36.3458974,25.1790598 36.3416239,25.0602564 L36.4458974,23.6055556 C36.4540171,23.5705128 36.5061538,23.3901709 36.518547,23.3363248 C36.6040171,22.9884615 36.6792308,22.734188 36.7642735,22.508547 C36.8121368,22.3730769 36.8706838,22.2491453 36.9300855,22.1192308 C37.0373504,21.8846154 37.1629915,21.6465812 37.317265,21.384188 L37.3463248,21.3363248 C37.3984615,21.2478632 37.4480342,21.1602564 37.5095726,21.0752137 C37.7847863,20.674359 38.0292308,20.3722222 38.2873504,20.1141026 C39.5578632,18.8440171 41.2471795,18.1444444 43.042906,18.1444444 C44.8377778,18.1444444 46.5241026,18.842735 47.7933333,20.1111111 C50.4121368,22.7303419 50.4121368,26.9965812 47.7933333,29.6188034 C47.5390598,29.8717949 47.2360684,30.1166667 46.8416239,30.3893162 C46.7655556,30.4410256 46.6924786,30.4850427 46.6198291,30.5286325 L46.5023077,30.6017094 C46.2775214,30.7350427 46.0326496,30.8628205 45.7946154,30.9722222 C45.66,31.0324786 45.5330769,31.0910256 45.3997436,31.1405983 C45.1647009,31.2294872 44.9052991,31.3042735 44.5783761,31.3824786 C44.5129915,31.3978632 44.46,31.4145299 44.4078632,31.4303419 C44.3711111,31.4393162 44.3369231,31.4508547 44.301453,31.4594017 L42.8078632,31.5623932 C42.5890598,31.5529915 42.352735,31.5209402 42.1236752,31.4905983 C42.0458974,31.4811966 41.9852137,31.4782051 41.925812,31.4747863 C41.9031624,31.4739316 41.8800855,31.4739316 41.8574359,31.4709402 L41.7300855,31.457265 C41.6189744,31.4529915 41.5082906,31.4508547 41.3980342,31.4508547 C38.8223932,31.4508547 36.2813675,32.5482906 34.4228205,34.4594017 C32.5723932,36.365812 31.5531624,38.9299145 31.6279487,41.4970085 L31.6300855,41.5722222 L31.6446154,41.6461538 C31.6591453,41.7217949 31.6621368,41.8 31.6676923,41.8760684 C31.6723932,41.9551282 31.6788034,42.0320513 31.6873504,42.1081197 C31.6924786,42.1717949 31.7018803,42.2529915 31.71,42.3320513 C31.7236752,42.4457265 31.7373504,42.5598291 31.7403419,42.6735043 L31.6300855,44.1482906 C31.6215385,44.1807692 31.5642735,44.3794872 31.5642735,44.3794872 C31.4924786,44.6918803 31.4125641,44.965812 31.3176923,45.2230769 C31.2728205,45.3440171 31.2198291,45.4602564 31.1655556,45.5820513 L31.1467521,45.6247863 C31.035641,45.8653846 30.9104274,46.1025641 30.7711111,46.3346154 C30.7023077,46.4495726 30.6347863,46.5615385 30.5629915,46.6679487 C30.2993162,47.05 30.051453,47.3542735 29.7860684,47.6217949 C28.5236752,48.8854701 26.8390598,49.582906 25.0454701,49.582906" id="Fill-9"></path>
                            <path d="M6.90012821,31.438547 C5.10440171,31.438547 3.41636752,30.7402564 2.1475641,29.4718803 C0.877905983,28.2009402 0.177905983,26.5133333 0.177051282,24.7176068 C0.176196581,22.9240171 0.873205128,21.238547 2.1424359,19.9705983 C2.40269231,19.7103419 2.70568376,19.4646154 3.09542735,19.195812 C3.19713675,19.1274359 3.31166667,19.0573504 3.42619658,18.988547 C3.65824786,18.8513675 3.89542735,18.7252991 4.14884615,18.6090598 C4.27876068,18.5492308 4.40782051,18.4911111 4.545,18.4402564 C4.79200855,18.3496581 5.06465812,18.2693162 5.34884615,18.2060684 L5.51935897,18.1582051 C5.55098291,18.1488034 5.58132479,18.1381197 5.61252137,18.1308547 L7.13346154,18.0218803 C7.33089744,18.03 7.54457265,18.0582051 7.76807692,18.0881197 L7.81508547,18.0945299 C7.8932906,18.1026496 7.95354701,18.1060684 8.01508547,18.1090598 C8.03688034,18.1099145 8.05867521,18.1099145 8.08047009,18.1133333 L8.1458547,18.1248718 L8.20739316,18.1270085 C8.32021368,18.13 8.43132479,18.1321368 8.54286325,18.1321368 C11.1155128,18.1321368 13.6565385,17.0359829 15.5133761,15.1235897 C17.3646581,13.2171795 18.3838889,10.6522222 18.3099573,8.08598291 L18.3078205,8.01205128 L18.2932906,7.93940171 C18.2774786,7.85777778 18.2753419,7.7757265 18.2702137,7.69239316 C18.2663675,7.62487179 18.262094,7.55692308 18.2548291,7.48641026 L18.2317521,7.2791453 C18.2159402,7.15649573 18.2005556,7.03128205 18.1975641,6.90649573 L18.2984188,5.49495726 L18.3078205,5.46247863 L18.3078205,5.43470085 C18.3159402,5.40222222 18.3710684,5.21461538 18.3710684,5.21461538 C18.4565385,4.85350427 18.5326068,4.59239316 18.6180769,4.36205128 C18.6659402,4.23512821 18.7253419,4.10820513 18.7855983,3.97700855 C18.895,3.73555556 19.0232051,3.49068376 19.1710684,3.24196581 L19.1937179,3.20350427 C19.2518376,3.10649573 19.3095299,3.00991453 19.3749145,2.91290598 C19.6411538,2.5265812 19.8860256,2.22487179 20.1420085,1.97017094 C21.4125214,0.70008547 23.1005556,8.54700855e-05 24.8975641,8.54700855e-05 C26.6932906,8.54700855e-05 28.3808974,0.698803419 29.6509829,1.96760684 C32.2702137,4.58811966 32.2680769,8.85307692 29.6479915,11.472735 C29.3885897,11.7329915 29.0796154,11.9834188 28.7014103,12.2398291 C28.5984188,12.3124786 28.5099573,12.3646154 28.4180769,12.4188889 L28.3685043,12.4479487 C28.1219231,12.5949573 27.8787607,12.722735 27.6501282,12.8278632 C27.5146581,12.8902564 27.387735,12.9475214 27.2586752,12.9953846 C27.0065385,13.0894017 26.7390171,13.1684615 26.4373077,13.2381197 C26.3736325,13.2535043 26.3163675,13.2701709 26.2595299,13.2859829 C26.2249145,13.2953846 26.1894444,13.3064957 26.1539744,13.3150427 L24.6642308,13.4193162 C24.4761966,13.4099145 24.2740598,13.3851282 24.0625214,13.3577778 L23.9710684,13.3462393 C23.902265,13.3381197 23.8390171,13.3351282 23.7774786,13.3308547 C23.752265,13.3295726 23.7274786,13.3295726 23.7026923,13.3252991 L23.6526923,13.3193162 L23.5868803,13.314188 C23.4757692,13.3099145 23.3650855,13.3077778 23.2539744,13.3077778 C20.6804701,13.3077778 18.1390171,14.4039316 16.2821795,16.3146154 C14.4300427,18.2201709 13.4095299,20.7868376 13.4826068,23.3539316 L13.4847436,23.4287179 L13.4979915,23.5026496 C13.5138034,23.5778632 13.5167949,23.655641 13.5223504,23.7317094 C13.5270513,23.8107692 13.5334615,23.8881197 13.5420085,23.9671795 C13.5479915,24.0295726 13.5573932,24.1094872 13.5672222,24.1889744 C13.579188,24.3013675 13.5941453,24.4116239 13.5958547,24.5231624 L13.4885897,25.9876923 C13.4804701,26.0252991 13.4680769,26.0637607 13.4565385,26.1035043 L13.4189316,26.2342735 C13.3441453,26.5624786 13.2650855,26.8351282 13.1753419,27.0774359 C13.1274786,27.2047863 13.0659402,27.3355556 13.0048291,27.4701709 C12.8945726,27.7116239 12.769359,27.9500855 12.6236325,28.1936752 C12.5539744,28.3103419 12.4894444,28.4197436 12.4197863,28.522735 C12.1437179,28.9223077 11.9061111,29.2158974 11.6471368,29.4731624 C10.3783333,30.7411111 8.69286325,31.438547 6.90012821,31.438547" id="Fill-11"></path>
                        </g>
                        <path d="M62.942,22.226 L59.072,22.226 L59.072,19.4 L70.358,19.4 L70.358,22.226 L66.506,22.226 L66.506,32 L62.942,32 L62.942,22.226 Z M81.806,29.246 L81.806,32 L71.69,32 L71.69,19.4 L81.572,19.4 L81.572,22.154 L75.218,22.154 L75.218,24.278 L80.816,24.278 L80.816,26.942 L75.218,26.942 L75.218,29.246 L81.806,29.246 Z M90.068,32.252 C88.7479934,32.252 87.5630053,31.9730028 86.513,31.415 C85.4629948,30.8569972 84.638003,30.080005 84.038,29.084 C83.437997,28.087995 83.138,26.9600063 83.138,25.7 C83.138,24.4399937 83.437997,23.312005 84.038,22.316 C84.638003,21.319995 85.4629948,20.5430028 86.513,19.985 C87.5630053,19.4269972 88.7479934,19.148 90.068,19.148 C91.2200058,19.148 92.2579954,19.351998 93.182,19.76 C94.1060046,20.168002 94.8739969,20.7559962 95.486,21.524 L93.218,23.576 C92.4019959,22.5919951 91.4120058,22.1 90.248,22.1 C89.5639966,22.1 88.9550027,22.2499985 88.421,22.55 C87.8869973,22.8500015 87.4730015,23.2729973 87.179,23.819 C86.8849985,24.3650027 86.738,24.9919965 86.738,25.7 C86.738,26.4080035 86.8849985,27.0349973 87.179,27.581 C87.4730015,28.1270027 87.8869973,28.5499985 88.421,28.85 C88.9550027,29.1500015 89.5639966,29.3 90.248,29.3 C91.4120058,29.3 92.4019959,28.8080049 93.218,27.824 L95.486,29.876 C94.8739969,30.6440038 94.1060046,31.231998 93.182,31.64 C92.2579954,32.048002 91.2200058,32.252 90.068,32.252 Z M109.058,19.4 L109.058,32 L105.494,32 L105.494,27.086 L100.634,27.086 L100.634,32 L97.07,32 L97.07,19.4 L100.634,19.4 L100.634,24.134 L105.494,24.134 L105.494,19.4 L109.058,19.4 Z M120.938,25.448 C121.634003,25.6760011 122.185998,26.0569973 122.594,26.591 C123.002002,27.1250027 123.206,27.787996 123.206,28.58 C123.206,29.6720055 122.786004,30.514997 121.946,31.109 C121.105996,31.703003 119.882008,32 118.274,32 L112.01,32 L112.01,19.4 L117.914,19.4 C119.402007,19.4 120.547996,19.6909971 121.352,20.273 C122.156004,20.8550029 122.558,21.6559949 122.558,22.676 C122.558,23.3000031 122.414001,23.8519976 122.126,24.332 C121.837999,24.8120024 121.442003,25.1839987 120.938,25.448 Z M114.35,21.236 L114.35,24.71 L117.662,24.71 C118.478004,24.71 119.104998,24.5630015 119.543,24.269 C119.981002,23.9749985 120.2,23.5460028 120.2,22.982 C120.2,22.4059971 119.981002,21.9710015 119.543,21.677 C119.104998,21.3829985 118.478004,21.236 117.662,21.236 L114.35,21.236 Z M118.13,30.164 C119.942009,30.164 120.848,29.5580061 120.848,28.346 C120.848,27.1339939 119.942009,26.528 118.13,26.528 L114.35,26.528 L114.35,30.164 L118.13,30.164 Z M133.952,32 L131.378,28.31 C131.269999,28.3220001 131.108001,28.328 130.892,28.328 L128.048,28.328 L128.048,32 L125.708,32 L125.708,19.4 L130.892,19.4 C131.984005,19.4 132.934996,19.5799982 133.745,19.94 C134.555004,20.3000018 135.175998,20.8159966 135.608,21.488 C136.040002,22.1600034 136.256,22.9579954 136.256,23.882 C136.256,24.8300047 136.025002,25.6459966 135.563,26.33 C135.100998,27.0140034 134.438004,27.5239983 133.574,27.86 L136.472,32 L133.952,32 Z M133.898,23.882 C133.898,23.077996 133.634003,22.4600022 133.106,22.028 C132.577997,21.5959978 131.804005,21.38 130.784,21.38 L128.048,21.38 L128.048,26.402 L130.784,26.402 C131.804005,26.402 132.577997,26.1830022 133.106,25.745 C133.634003,25.3069978 133.898,24.686004 133.898,23.882 Z M147.038,29.084 L140.738,29.084 L139.496,32 L137.084,32 L142.754,19.4 L145.058,19.4 L150.746,32 L148.298,32 L147.038,29.084 Z M146.264,27.248 L143.888,21.74 L141.53,27.248 L146.264,27.248 Z M163.544,19.4 L163.544,32 L161.618,32 L154.67,23.468 L154.67,32 L152.348,32 L152.348,19.4 L154.274,19.4 L161.222,27.932 L161.222,19.4 L163.544,19.4 Z M166.928,19.4 L172.436,19.4 C173.780007,19.4 174.973995,19.6609974 176.018,20.183 C177.062005,20.7050026 177.871997,21.4429952 178.448,22.397 C179.024003,23.3510048 179.312,24.4519938 179.312,25.7 C179.312,26.9480062 179.024003,28.0489952 178.448,29.003 C177.871997,29.9570048 177.062005,30.6949974 176.018,31.217 C174.973995,31.7390026 173.780007,32 172.436,32 L166.928,32 L166.928,19.4 Z M172.328,30.02 C173.252005,30.02 174.064996,29.8430018 174.767,29.489 C175.469004,29.1349982 176.008998,28.6310033 176.387,27.977 C176.765002,27.3229967 176.954,26.5640043 176.954,25.7 C176.954,24.8359957 176.765002,24.0770033 176.387,23.423 C176.008998,22.7689967 175.469004,22.2650018 174.767,21.911 C174.064996,21.5569982 173.252005,21.38 172.328,21.38 L169.268,21.38 L169.268,30.02 L172.328,30.02 Z" id="TechBrand"></path>
                    </g>
                </g>
            </g>
        </g>
    </g>
</svg>