<?xml version="1.0" encoding="UTF-8"?>
<svg width="183px" height="50px" viewBox="0 0 183 50" version="1.1" xmlns="http://www.w3.org/2000/svg" xmlns:xlink="http://www.w3.org/1999/xlink">
    <!-- Generator: Sketch 48.2 (47327) - http://www.bohemiancoding.com/sketch -->
    <title>Logo-example-1</title>
    <desc>Created with Sketch.</desc>
    <defs></defs>
    <g id="Home---Clasic" stroke="none" stroke-width="1" fill="none" fill-rule="evenodd" transform="translate(-102.000000, -5548.000000)">
        <g id="Group-38" transform="translate(80.000000, 4941.000000)" fill="#6A7489">
            <g id="Clients" transform="translate(2.000000, 0.500000)">
                <g id="Group-39" transform="translate(20.000000, 606.000000)">
                    <g id="Logo-example-1" transform="translate(0.000000, 0.500000)">
                        <path d="M53.7397307,11.3587175 L69.2923077,0 L85.1897436,11.6115385 L69.2923077,11.6217949 L40.4897436,32.6576923 L40.4897436,49.0987179 L31.1051282,49.0987179 L31.1051282,27.8897436 L45.7822964,17.1703748 L38.1871795,11.6217949 L9.38589744,32.6576923 L9.38589744,49.0987179 L0,49.0987179 L0,27.8897436 L38.1871795,0 L53.7397307,11.3587175 Z" id="Combined-Shape"></path>
                        <path d="M69.16,41.7 C69.960004,41.9800014 70.5866644,42.4166637 71.04,43.01 C71.4933356,43.6033363 71.72,44.3199958 71.72,45.16 C71.72,46.3866728 71.2266716,47.33333 70.24,48 C69.2533284,48.66667 67.826676,49 65.96,49 L58.4,49 L58.4,35 L65.56,35 C67.3466756,35 68.706662,35.3299967 69.64,35.99 C70.573338,36.6500033 71.04,37.5399944 71.04,38.66 C71.04,39.32667 70.8766683,39.9233307 70.55,40.45 C70.2233317,40.9766693 69.760003,41.3933318 69.16,41.7 Z M62.32,37.86 L62.32,40.56 L65.04,40.56 C66.37334,40.56 67.04,40.1066712 67.04,39.2 C67.04,38.3066622 66.37334,37.86 65.04,37.86 L62.32,37.86 Z M65.64,46.14 C67.0266736,46.14 67.72,45.6666714 67.72,44.72 C67.72,43.7733286 67.0266736,43.3 65.64,43.3 L62.32,43.3 L62.32,46.14 L65.64,46.14 Z M77.22,39.46 C77.6066686,38.9666642 78.1099969,38.5966679 78.73,38.35 C79.3500031,38.1033321 80.059996,37.98 80.86,37.98 L80.86,41.4 C80.5133316,41.3599998 80.2266678,41.34 80,41.34 C79.1866626,41.34 78.5500023,41.5599978 78.09,42 C77.6299977,42.4400022 77.4,43.1133288 77.4,44.02 L77.4,49 L73.6,49 L73.6,38.16 L77.22,38.16 L77.22,39.46 Z M87.08,37.98 C88.880009,37.98 90.2533286,38.3899959 91.2,39.21 C92.1466714,40.0300041 92.62,41.2866582 92.62,42.98 L92.62,49 L89.08,49 L89.08,47.6 C88.5333306,48.6533386 87.4666746,49.18 85.88,49.18 C85.0399958,49.18 84.3133364,49.0333348 83.7,48.74 C83.0866636,48.4466652 82.6233349,48.0500025 82.31,47.55 C81.9966651,47.0499975 81.84,46.4800032 81.84,45.84 C81.84,44.8133282 82.2333294,44.0166695 83.02,43.45 C83.8066706,42.8833305 85.0199918,42.6 86.66,42.6 L88.82,42.6 C88.753333,41.4533276 87.986674,40.88 86.52,40.88 C85.9999974,40.88 85.473336,40.9633325 84.94,41.13 C84.406664,41.2966675 83.9533352,41.5266652 83.58,41.82 L82.3,39.24 C82.900003,38.839998 83.6299957,38.5300011 84.49,38.31 C85.3500043,38.0899989 86.213329,37.98 87.08,37.98 Z M86.94,46.78 C87.3800022,46.78 87.766665,46.6733344 88.1,46.46 C88.433335,46.2466656 88.6733326,45.9333354 88.82,45.52 L88.82,44.58 L87.18,44.58 C86.0733278,44.58 85.52,44.946663 85.52,45.68 C85.52,46.013335 85.6466654,46.279999 85.9,46.48 C86.1533346,46.680001 86.4999978,46.78 86.94,46.78 Z M102.08,37.98 C103.426673,37.98 104.509996,38.379996 105.33,39.18 C106.150004,39.980004 106.56,41.1866586 106.56,42.8 L106.56,49 L102.76,49 L102.76,43.42 C102.76,41.9399926 102.166673,41.2 100.98,41.2 C100.326663,41.2 99.8033353,41.4133312 99.41,41.84 C99.0166647,42.2666688 98.82,42.9066624 98.82,43.76 L98.82,49 L95.02,49 L95.02,38.16 L98.64,38.16 L98.64,39.34 C99.0666688,38.8999978 99.5733304,38.5633345 100.16,38.33 C100.74667,38.0966655 101.386663,37.98 102.08,37.98 Z M120.46,34.16 L120.46,49 L116.84,49 L116.84,47.92 C116.13333,48.7600042 115.07334,49.18 113.66,49.18 C112.673328,49.18 111.773337,48.9500023 110.96,48.49 C110.146663,48.0299977 109.503336,47.3733376 109.03,46.52 C108.556664,45.6666624 108.32,44.6800056 108.32,43.56 C108.32,42.4399944 108.556664,41.4566709 109.03,40.61 C109.503336,39.7633291 110.146663,39.1133356 110.96,38.66 C111.773337,38.2066644 112.673328,37.98 113.66,37.98 C114.95334,37.98 115.95333,38.3533296 116.66,39.1 L116.66,34.16 L120.46,34.16 Z M114.46,46.16 C115.113337,46.16 115.653331,45.9300023 116.08,45.47 C116.506669,45.0099977 116.72,44.3733374 116.72,43.56 C116.72,42.759996 116.510002,42.1333356 116.09,41.68 C115.669998,41.2266644 115.12667,41 114.46,41 C113.79333,41 113.246669,41.2266644 112.82,41.68 C112.393331,42.1333356 112.18,42.759996 112.18,43.56 C112.18,44.3733374 112.393331,45.0099977 112.82,45.47 C113.246669,45.9300023 113.79333,46.16 114.46,46.16 Z M136,35 L136,49 L133.86,49 L126.14,39.52 L126.14,49 L123.56,49 L123.56,35 L125.7,35 L133.42,44.48 L133.42,35 L136,35 Z M143.6,38.2 C145.173341,38.2 146.376663,38.5766629 147.21,39.33 C148.043338,40.0833371 148.46,41.2199924 148.46,42.74 L148.46,49 L146.1,49 L146.1,47.7 C145.793332,48.166669 145.35667,48.5233321 144.79,48.77 C144.223331,49.0166679 143.540004,49.14 142.74,49.14 C141.939996,49.14 141.240003,49.0033347 140.64,48.73 C140.039997,48.4566653 139.576668,48.0766691 139.25,47.59 C138.923332,47.1033309 138.76,46.5533364 138.76,45.94 C138.76,44.9799952 139.116663,44.2100029 139.83,43.63 C140.543337,43.0499971 141.666659,42.76 143.2,42.76 L145.96,42.76 L145.96,42.6 C145.96,41.8533296 145.736669,41.280002 145.29,40.88 C144.843331,40.479998 144.180004,40.28 143.3,40.28 C142.699997,40.28 142.110003,40.3733324 141.53,40.56 C140.949997,40.7466676 140.460002,41.006665 140.06,41.34 L139.08,39.52 C139.640003,39.0933312 140.313329,38.7666678 141.1,38.54 C141.886671,38.3133322 142.719996,38.2 143.6,38.2 Z M143.26,47.32 C143.88667,47.32 144.443331,47.1766681 144.93,46.89 C145.416669,46.6033319 145.759999,46.193336 145.96,45.66 L145.96,44.42 L143.38,44.42 C141.939993,44.42 141.22,44.8933286 141.22,45.84 C141.22,46.2933356 141.399998,46.653332 141.76,46.92 C142.120002,47.186668 142.619997,47.32 143.26,47.32 Z M165.14,38.2 C166.486673,38.2 167.553329,38.5899961 168.34,39.37 C169.126671,40.1500039 169.52,41.3199922 169.52,42.88 L169.52,49 L167.02,49 L167.02,43.2 C167.02,42.266662 166.813335,41.5633357 166.4,41.09 C165.986665,40.6166643 165.393337,40.38 164.62,40.38 C163.779996,40.38 163.106669,40.6566639 162.6,41.21 C162.093331,41.7633361 161.84,42.5533282 161.84,43.58 L161.84,49 L159.34,49 L159.34,43.2 C159.34,42.266662 159.133335,41.5633357 158.72,41.09 C158.306665,40.6166643 157.713337,40.38 156.94,40.38 C156.086662,40.38 155.410002,40.6533306 154.91,41.2 C154.409997,41.7466694 154.16,42.5399948 154.16,43.58 L154.16,49 L151.66,49 L151.66,38.32 L154.04,38.32 L154.04,39.68 C154.440002,39.1999976 154.939997,38.8333346 155.54,38.58 C156.140003,38.3266654 156.806663,38.2 157.54,38.2 C158.340004,38.2 159.049997,38.3499985 159.67,38.65 C160.290003,38.9500015 160.779998,39.3933304 161.14,39.98 C161.580002,39.4199972 162.146663,38.9833349 162.84,38.67 C163.533337,38.3566651 164.299996,38.2 165.14,38.2 Z M182.76,43.72 C182.76,43.8933342 182.746667,44.1399984 182.72,44.46 L174.34,44.46 C174.486667,45.2466706 174.869997,45.8699977 175.49,46.33 C176.110003,46.7900023 176.879995,47.02 177.8,47.02 C178.973339,47.02 179.939996,46.6333372 180.7,45.86 L182.04,47.4 C181.559998,47.9733362 180.953337,48.4066652 180.22,48.7 C179.486663,48.9933348 178.660005,49.14 177.74,49.14 C176.566661,49.14 175.533338,48.906669 174.64,48.44 C173.746662,47.973331 173.056669,47.3233375 172.57,46.49 C172.083331,45.6566625 171.84,44.7133386 171.84,43.66 C171.84,42.6199948 172.076664,41.6833375 172.55,40.85 C173.023336,40.0166625 173.679996,39.366669 174.52,38.9 C175.360004,38.433331 176.306661,38.2 177.36,38.2 C178.400005,38.2 179.329996,38.4299977 180.15,38.89 C180.970004,39.3500023 181.609998,39.9966625 182.07,40.83 C182.530002,41.6633375 182.76,42.6266612 182.76,43.72 Z M177.36,40.2 C176.559996,40.2 175.883336,40.4366643 175.33,40.91 C174.776664,41.3833357 174.440001,42.0133294 174.32,42.8 L180.38,42.8 C180.273333,42.0266628 179.946669,41.4000024 179.4,40.92 C178.853331,40.4399976 178.173337,40.2 177.36,40.2 Z" id="BrandName"></path>
                    </g>
                </g>
            </g>
        </g>
    </g>
</svg>