<?xml version="1.0" encoding="UTF-8"?>
<svg width="97px" height="50px" viewBox="0 0 97 50" version="1.1" xmlns="http://www.w3.org/2000/svg" xmlns:xlink="http://www.w3.org/1999/xlink">
    <!-- Generator: Sketch 48.2 (47327) - http://www.bohemiancoding.com/sketch -->
    <title>Logo-example-3</title>
    <desc>Created with Sketch.</desc>
    <defs></defs>
    <g id="Home---Clasic" stroke="none" stroke-width="1" fill="none" fill-rule="evenodd" transform="translate(-556.000000, -5549.000000)">
        <g id="Group-38" transform="translate(80.000000, 4941.000000)" fill="#6A7489">
            <g id="Clients" transform="translate(2.000000, 0.500000)">
                <g id="Group-39" transform="translate(20.000000, 606.000000)">
                    <g id="Logo-example-3" transform="translate(454.000000, 1.000000)">
                        <path d="M0.711499809,50 C0.624832709,50 0.551166779,49.969667 0.490499809,49.909 C0.429832839,49.848333 0.399499809,49.7746671 0.399499809,49.688 L0.399499809,41.225 C0.399499809,41.1296662 0.427666194,41.051667 0.483999809,40.991 C0.540333424,40.930333 0.616165999,40.9 0.711499809,40.9 L1.76449981,40.9 C1.9291673,40.9 2.059166,40.9823325 2.15449981,41.147 L4.66349981,45.801 L7.17249981,41.147 C7.26783362,40.9823325 7.39783232,40.9 7.56249981,40.9 L8.60249981,40.9 C8.69783362,40.9 8.77583284,40.930333 8.83649981,40.991 C8.89716678,41.051667 8.92749981,41.1296662 8.92749981,41.225 L8.92749981,49.688 C8.92749981,49.7833338 8.89716678,49.8591664 8.83649981,49.9155 C8.77583284,49.9718336 8.69783362,50 8.60249981,50 L7.48449981,50 C7.39783271,50 7.32416678,49.969667 7.26349981,49.909 C7.20283284,49.848333 7.17249981,49.7746671 7.17249981,49.688 L7.17249981,44.098 L5.36549981,47.53 C5.270166,47.7206676 5.12716743,47.816 4.93649981,47.816 L4.39049981,47.816 C4.2084989,47.816 4.06116704,47.7206676 3.94849981,47.53 L2.14149981,44.098 L2.14149981,49.688 C2.14149981,49.7746671 2.11333342,49.848333 2.05699981,49.909 C2.00066619,49.969667 1.92483362,50 1.82949981,50 L0.711499809,50 Z M16.1654999,50.13 C14.9781606,50.13 14.0551698,49.831003 13.3964999,49.233 C12.7378299,48.634997 12.3911667,47.7466726 12.3564999,46.568 C12.3478331,46.3166654 12.3434999,45.9483358 12.3434999,45.463 C12.3434999,44.9689975 12.3478331,44.5963346 12.3564999,44.345 C12.3911667,43.1923276 12.7464965,42.3083364 13.4224999,41.693 C14.0985032,41.0776636 15.0128274,40.77 16.1654999,40.77 C17.3095056,40.77 18.2216631,41.0776636 18.9019999,41.693 C19.5823366,42.3083364 19.939833,43.1923276 19.9744999,44.345 C19.9918333,44.8476692 20.0004999,45.2203321 20.0004999,45.463 C20.0004999,45.6970012 19.9918333,46.0653308 19.9744999,46.568 C19.939833,47.7466726 19.5910032,48.634997 18.9279999,49.233 C18.2649965,49.831003 17.3441724,50.13 16.1654999,50.13 Z M16.1654999,48.622 C16.7461694,48.622 17.2054982,48.4486684 17.5434999,48.102 C17.8815015,47.7553316 18.0634997,47.2223369 18.0894999,46.503 C18.1068333,45.9829974 18.1154999,45.6320009 18.1154999,45.45 C18.1154999,45.2506657 18.1068333,44.8996692 18.0894999,44.397 C18.0634997,43.6863298 17.8771683,43.1555018 17.5304999,42.8045 C17.1838315,42.4534982 16.728836,42.278 16.1654999,42.278 C15.593497,42.278 15.1341683,42.4534982 14.7874999,42.8045 C14.4408315,43.1555018 14.2588333,43.6863298 14.2414999,44.397 C14.2328331,44.6483346 14.2284999,44.9993311 14.2284999,45.45 C14.2284999,45.8920022 14.2328331,46.2429987 14.2414999,46.503 C14.2588333,47.2136702 14.4386648,47.7444982 14.7809999,48.0955 C15.1233349,48.4465018 15.5848303,48.622 16.1654999,48.622 Z M23.7024999,50 C23.6158328,50 23.5421669,49.969667 23.4814999,49.909 C23.4208329,49.848333 23.3904999,49.7746671 23.3904999,49.688 L23.3904999,41.225 C23.3904999,41.1296662 23.4186663,41.051667 23.4749999,40.991 C23.5313335,40.930333 23.6071661,40.9 23.7024999,40.9 L24.7164999,40.9 C24.8811674,40.9 25.0068328,40.9736659 25.0934999,41.121 L28.8114999,46.893 L28.8114999,41.225 C28.8114999,41.1296662 28.8396663,41.051667 28.8959999,40.991 C28.9523335,40.930333 29.0281661,40.9 29.1234999,40.9 L30.2414999,40.9 C30.3368337,40.9 30.4148329,40.930333 30.4754999,40.991 C30.5361669,41.051667 30.5664999,41.1296662 30.5664999,41.225 L30.5664999,49.675 C30.5664999,49.7703338 30.5361669,49.848333 30.4754999,49.909 C30.4148329,49.969667 30.341167,50 30.2544999,50 L29.2274999,50 C29.0541657,50 28.924167,49.9263341 28.8374999,49.779 L25.1324999,44.137 L25.1324999,49.688 C25.1324999,49.7746671 25.1043335,49.848333 25.0479999,49.909 C24.9916663,49.969667 24.9158337,50 24.8204999,50 L23.7024999,50 Z M37.7915,50.13 C36.6041607,50.13 35.6811699,49.831003 35.0225,49.233 C34.36383,48.634997 34.0171668,47.7466726 33.9825,46.568 C33.9738332,46.3166654 33.9695,45.9483358 33.9695,45.463 C33.9695,44.9689975 33.9738332,44.5963346 33.9825,44.345 C34.0171668,43.1923276 34.3724966,42.3083364 35.0485,41.693 C35.7245033,41.0776636 36.6388275,40.77 37.7915,40.77 C38.9355057,40.77 39.8476632,41.0776636 40.528,41.693 C41.2083367,42.3083364 41.5658331,43.1923276 41.6005,44.345 C41.6178334,44.8476692 41.6265,45.2203321 41.6265,45.463 C41.6265,45.6970012 41.6178334,46.0653308 41.6005,46.568 C41.5658331,47.7466726 41.2170033,48.634997 40.554,49.233 C39.8909966,49.831003 38.9701725,50.13 37.7915,50.13 Z M37.7915,48.622 C38.3721695,48.622 38.8314983,48.4486684 39.1695,48.102 C39.5075016,47.7553316 39.6894998,47.2223369 39.7155,46.503 C39.7328334,45.9829974 39.7415,45.6320009 39.7415,45.45 C39.7415,45.2506657 39.7328334,44.8996692 39.7155,44.397 C39.6894998,43.6863298 39.5031684,43.1555018 39.1565,42.8045 C38.8098316,42.4534982 38.3548361,42.278 37.7915,42.278 C37.2194971,42.278 36.7601684,42.4534982 36.4135,42.8045 C36.0668316,43.1555018 35.8848334,43.6863298 35.8675,44.397 C35.8588332,44.6483346 35.8545,44.9993311 35.8545,45.45 C35.8545,45.8920022 35.8588332,46.2429987 35.8675,46.503 C35.8848334,47.2136702 36.0646649,47.7444982 36.407,48.0955 C36.749335,48.4465018 37.2108304,48.622 37.7915,48.622 Z M48.5655,50.13 C47.369494,50.13 46.4400033,49.8223364 45.777,49.207 C45.1139967,48.5916636 44.7608335,47.7336722 44.7175,46.633 C44.7088333,46.3816654 44.7045,45.9786694 44.7045,45.424 C44.7045,44.8693306 44.7088333,44.4663346 44.7175,44.215 C44.7521668,43.140328 45.1074966,42.2975031 45.7835,41.6865 C46.4595034,41.0754969 47.3868274,40.77 48.5655,40.77 C49.3628373,40.77 50.0496638,40.9064986 50.626,41.1795 C51.2023362,41.4525014 51.6378319,41.790498 51.9325,42.1935 C52.2271681,42.596502 52.3831666,42.9929981 52.4005,43.383 C52.4005,43.4610004 52.3745003,43.5259997 52.3225,43.578 C52.2704997,43.6300003 52.2011671,43.656 52.1145,43.656 L50.7495,43.656 C50.6628329,43.656 50.5978335,43.6386668 50.5545,43.604 C50.5111664,43.5693332 50.4721668,43.5130004 50.4375,43.435 C50.3161661,43.1143317 50.1038348,42.8413345 49.8005,42.616 C49.4971651,42.3906655 49.0855026,42.278 48.5655,42.278 C47.9588303,42.278 47.484335,42.4404984 47.142,42.7655 C46.799665,43.0905016 46.6198334,43.5953299 46.6025,44.28 C46.5938333,44.5313346 46.5895,44.9126641 46.5895,45.424 C46.5895,45.9266692 46.5938333,46.3079987 46.6025,46.568 C46.6198334,47.2700035 46.8018316,47.7878317 47.1485,48.1215 C47.4951684,48.4551683 47.9718303,48.622 48.5785,48.622 C49.1938364,48.622 49.6878315,48.457335 50.0605,48.128 C50.4331685,47.798665 50.6195,47.30467 50.6195,46.646 L50.6195,46.243 L49.0335,46.243 C48.9468329,46.243 48.873167,46.212667 48.8125,46.152 C48.751833,46.091333 48.7215,46.0176671 48.7215,45.931 L48.7215,45.216 C48.7215,45.1293329 48.751833,45.055667 48.8125,44.995 C48.873167,44.934333 48.9468329,44.904 49.0335,44.904 L52.1535,44.904 C52.2488338,44.904 52.326833,44.934333 52.3875,44.995 C52.448167,45.055667 52.4785,45.1293329 52.4785,45.216 L52.4785,46.594 C52.4785,47.3133369 52.3181683,47.9394973 51.9975,48.4725 C51.6768317,49.0055027 51.2218363,49.4149986 50.6325,49.701 C50.0431637,49.9870014 49.3541706,50.13 48.5655,50.13 Z M56.1415,50 C56.0548329,50 55.981167,49.969667 55.9205,49.909 C55.8598331,49.848333 55.8295,49.7746671 55.8295,49.688 L55.8295,41.225 C55.8295,41.1296662 55.8576664,41.051667 55.914,40.991 C55.9703337,40.930333 56.0461662,40.9 56.1415,40.9 L59.5085,40.9 C60.5745054,40.9 61.4086637,41.1469975 62.011,41.641 C62.6133364,42.1350025 62.9145,42.8369955 62.9145,43.747 C62.9145,44.3796698 62.7628349,44.9104979 62.4595,45.3395 C62.1561652,45.7685021 61.7315028,46.0783324 61.1855,46.269 L63.0705,49.584 C63.0965002,49.6360003 63.1095,49.6836665 63.1095,49.727 C63.1095,49.8050004 63.0813337,49.8699997 63.025,49.922 C62.9686664,49.9740003 62.9058337,50 62.8365,50 L61.6405,50 C61.5018327,50 61.3935004,49.9675003 61.3155,49.9025 C61.2374997,49.8374997 61.168167,49.7530005 61.1075,49.649 L59.4435,46.568 L57.6625,46.568 L57.6625,49.688 C57.6625,49.7746671 57.632167,49.848333 57.5715,49.909 C57.5108331,49.969667 57.4328339,50 57.3375,50 L56.1415,50 Z M59.4695,45.086 C59.9895026,45.086 60.3794987,44.9711678 60.6395,44.7415 C60.8995013,44.5118322 61.0295,44.1760022 61.0295,43.734 C61.0295,43.2919978 60.8995013,42.9518345 60.6395,42.7135 C60.3794987,42.4751655 59.9895026,42.356 59.4695,42.356 L57.6625,42.356 L57.6625,45.086 L59.4695,45.086 Z M65.7325001,50 C65.6544997,50 65.5895004,49.9740003 65.5375001,49.922 C65.4854998,49.8699997 65.4595001,49.8050004 65.4595001,49.727 L65.4855001,49.61 L68.6055001,41.225 C68.6921672,41.0083323 68.8481656,40.9 69.0735001,40.9 L70.5035001,40.9 C70.7288346,40.9 70.884833,41.0083323 70.9715001,41.225 L74.0915001,49.61 L74.1175001,49.727 C74.1175001,49.8050004 74.0893337,49.8699997 74.0330001,49.922 C73.9766665,49.9740003 73.9138338,50 73.8445001,50 L72.6875001,50 C72.5054992,50 72.3798338,49.9176675 72.3105001,49.753 L71.7125001,48.18 L67.8645001,48.18 L67.2665001,49.753 C67.1971664,49.9176675 67.071501,50 66.8895001,50 L65.7325001,50 Z M68.3195001,46.672 L71.2575001,46.672 L69.7885001,42.668 L68.3195001,46.672 Z M77.3255001,50 C77.238833,50 77.1651671,49.969667 77.1045001,49.909 C77.0438332,49.848333 77.0135001,49.7746671 77.0135001,49.688 L77.0135001,41.225 C77.0135001,41.1296662 77.0416665,41.051667 77.0980001,40.991 C77.1543338,40.930333 77.2301663,40.9 77.3255001,40.9 L78.3785001,40.9 C78.5431676,40.9 78.6731663,40.9823325 78.7685001,41.147 L81.2775001,45.801 L83.7865001,41.147 C83.881834,40.9823325 84.0118327,40.9 84.1765001,40.9 L85.2165001,40.9 C85.311834,40.9 85.3898332,40.930333 85.4505001,40.991 C85.5111671,41.051667 85.5415001,41.1296662 85.5415001,41.225 L85.5415001,49.688 C85.5415001,49.7833338 85.5111671,49.8591664 85.4505001,49.9155 C85.3898332,49.9718336 85.311834,50 85.2165001,50 L84.0985001,50 C84.011833,50 83.9381671,49.969667 83.8775001,49.909 C83.8168332,49.848333 83.7865001,49.7746671 83.7865001,49.688 L83.7865001,44.098 L81.9795001,47.53 C81.8841663,47.7206676 81.7411678,47.816 81.5505001,47.816 L81.0045001,47.816 C80.8224992,47.816 80.6751674,47.7206676 80.5625001,47.53 L78.7555001,44.098 L78.7555001,49.688 C78.7555001,49.7746671 78.7273338,49.848333 78.6710001,49.909 C78.6146665,49.969667 78.538834,50 78.4435001,50 L77.3255001,50 Z M92.4415002,50.13 C91.6614963,50.13 90.9941696,50.0130012 90.4395002,49.779 C89.8848308,49.5449988 89.4645016,49.2373352 89.1785002,48.856 C88.8924988,48.4746648 88.7408336,48.0586689 88.7235002,47.608 C88.7235002,47.5386663 88.7494999,47.4758336 88.8015002,47.4195 C88.8535005,47.3631664 88.9184998,47.335 88.9965002,47.335 L90.1795002,47.335 C90.274834,47.335 90.3528332,47.3566665 90.4135002,47.4 C90.4741672,47.4433336 90.5304999,47.5039996 90.5825002,47.582 C90.6691673,47.8766681 90.866332,48.1236657 91.1740002,48.323 C91.4816684,48.5223343 91.9041642,48.622 92.4415002,48.622 C93.0481699,48.622 93.505332,48.5201677 93.8130002,48.3165 C94.1206684,48.1128323 94.2745002,47.8333351 94.2745002,47.478 C94.2745002,47.2439988 94.196501,47.0490008 94.0405002,46.893 C93.8844994,46.7369992 93.6483351,46.6005006 93.3320002,46.4835 C93.0156653,46.3664994 92.5455033,46.2256675 91.9215002,46.061 C90.8988284,45.8183321 90.1491692,45.4976687 89.6725002,45.099 C89.1958311,44.7003313 88.9575002,44.1283371 88.9575002,43.383 C88.9575002,42.8803308 89.0961655,42.4318353 89.3735002,42.0375 C89.6508349,41.6431647 90.0473309,41.3333345 90.5630002,41.108 C91.0786694,40.8826655 91.6788301,40.77 92.3635002,40.77 C93.0828371,40.77 93.7046642,40.8956654 94.2290002,41.147 C94.7533361,41.3983346 95.1519988,41.7124981 95.4250002,42.0895 C95.6980016,42.4665019 95.8431668,42.8413315 95.8605002,43.214 C95.8605002,43.2833337 95.8345005,43.3461664 95.7825002,43.4025 C95.7304999,43.4588336 95.6655006,43.487 95.5875002,43.487 L94.3525002,43.487 C94.1618326,43.487 94.0318339,43.4090008 93.9625002,43.253 C93.9191666,42.9756653 93.7501683,42.7438343 93.4555002,42.5575 C93.1608321,42.3711657 92.7968357,42.278 92.3635002,42.278 C91.8868311,42.278 91.5120016,42.3689991 91.2390002,42.551 C90.9659988,42.7330009 90.8295002,42.9973316 90.8295002,43.344 C90.8295002,43.5780012 90.8988328,43.7729992 91.0375002,43.929 C91.1761676,44.0850008 91.3928321,44.2214994 91.6875002,44.3385 C91.9821683,44.4555006 92.411164,44.5876659 92.9745002,44.735 C93.7458374,44.9083342 94.3589979,45.1033323 94.8140002,45.32 C95.2690025,45.5366678 95.6048324,45.809665 95.8215002,46.139 C96.0381679,46.468335 96.1465002,46.8886641 96.1465002,47.4 C96.1465002,47.9633362 95.9926684,48.4508313 95.6850002,48.8625 C95.377332,49.2741687 94.944003,49.5883323 94.3850002,49.805 C93.8259974,50.0216678 93.1781705,50.13 92.4415002,50.13 Z" id="MONOGRAMS"></path>
                        <g id="Group-2" transform="translate(1.000000, 0.000000)">
                            <polyline id="Fill-12" points="28.3300352 33.402875 37.7305703 33.402875 23.6304648 0.7533125 14.2299297 0.7533125 28.3300352 33.402875"></polyline>
                            <polyline id="Fill-14" points="9.43553125 33.402875 0.0349960938 33.402875 14.133707 0.7533125 23.5356367 0.7533125 9.43553125 33.402875"></polyline>
                            <polyline id="Fill-15" points="56.6710938 33.402875 66.0730234 33.402875 51.972918 0.7533125 42.5723828 0.7533125 56.6710938 33.402875"></polyline>
                            <polyline id="Fill-17" points="37.7779844 33.402875 28.3774492 33.402875 42.4803437 0.7533125 51.8808789 0.7533125 37.7779844 33.402875"></polyline>
                            <polyline id="Fill-18" points="84.9549766 33.402875 94.3555117 33.402875 80.2554062 0.7533125 70.8534766 0.7533125 84.9549766 33.402875"></polyline>
                            <polyline id="Fill-20" points="66.0576836 33.402875 56.6599375 33.402875 70.7586484 0.7533125 80.1591836 0.7533125 66.0576836 33.402875"></polyline>
                        </g>
                    </g>
                </g>
            </g>
        </g>
    </g>
</svg>