<svg width="188" height="35" viewBox="0 0 188 35" xmlns="http://www.w3.org/2000/svg"><title>logo</title><g fill="none" fill-rule="evenodd"><path d="M52.55 27.79a.694.694 0 0 1-.21-.51V7.72c0-.22.07-.395.21-.525.14-.13.31-.195.51-.195h2.88c.22 0 .395.065.525.195s.195.305.195.525v19.56c0 .2-.065.37-.195.51a.682.682 0 0 1-.525.21h-2.88c-.2 0-.37-.07-.51-.21zm8.64 0a.694.694 0 0 1-.21-.51V13.12c0-.22.07-.395.21-.525.14-.13.31-.195.51-.195h2.49c.22 0 .395.065.525.195s.195.305.195.525v1.23c1.22-1.5 2.89-2.25 5.01-2.25 1.84 0 3.3.6 4.38 1.8 1.08 1.2 1.62 2.85 1.62 4.95v8.43c0 .2-.065.37-.195.51a.682.682 0 0 1-.525.21h-2.7c-.2 0-.37-.07-.51-.21a.694.694 0 0 1-.21-.51v-8.25c0-1.16-.285-2.065-.855-2.715-.57-.65-1.385-.975-2.445-.975-1.02 0-1.84.33-2.46.99-.62.66-.93 1.56-.93 2.7v8.25c0 .2-.065.37-.195.51a.682.682 0 0 1-.525.21H61.7c-.2 0-.37-.07-.51-.21zm19.68-1.425c-1.08-1.29-1.67-3.015-1.77-5.175l-.03-.99.03-.99c.08-2.12.665-3.835 1.755-5.145 1.09-1.31 2.645-1.965 4.665-1.965 1.92 0 3.45.66 4.59 1.98V7.42c0-.22.07-.395.21-.525.14-.13.31-.195.51-.195h2.61c.22 0 .395.065.525.195s.195.305.195.525v19.86c0 .2-.065.37-.195.51a.682.682 0 0 1-.525.21h-2.43c-.2 0-.37-.07-.51-.21a.694.694 0 0 1-.21-.51v-1.11c-1.1 1.42-2.69 2.13-4.77 2.13-2.02 0-3.57-.645-4.65-1.935zm8.325-2.4c.55-.73.855-1.635.915-2.715.02-.24.03-.62.03-1.14 0-.54-.01-.93-.03-1.17-.04-1-.35-1.85-.93-2.55-.58-.7-1.42-1.05-2.52-1.05-2.14 0-3.28 1.32-3.42 3.96l-.03.9.03.9c.14 2.64 1.28 3.96 3.42 3.96 1.14 0 1.985-.365 2.535-1.095zM99.59 26.5C98.53 25.3 98 23.65 98 21.55v-8.43c0-.22.07-.395.21-.525.14-.13.31-.195.51-.195h2.7c.2 0 .37.07.51.21.14.14.21.31.21.51v8.25c0 2.46 1.07 3.69 3.21 3.69 1.04 0 1.865-.33 2.475-.99.61-.66.915-1.56.915-2.7v-8.25c0-.22.07-.395.21-.525.14-.13.31-.195.51-.195h2.67c.22 0 .395.065.525.195s.195.305.195.525v14.16c0 .2-.065.37-.195.51a.682.682 0 0 1-.525.21h-2.49c-.2 0-.37-.07-.51-.21a.694.694 0 0 1-.21-.51v-1.23c-1.1 1.5-2.76 2.25-4.98 2.25-1.84 0-3.29-.6-4.35-1.8zm19.35 1.11c-1.02-.46-1.775-.995-2.265-1.605-.49-.61-.735-1.135-.735-1.575 0-.2.065-.36.195-.48s.285-.18.465-.18h2.46c.16 0 .3.08.42.24.1.08.325.27.675.57.35.3.75.535 1.2.705.45.17.945.255 1.485.255.8 0 1.45-.155 1.95-.465.5-.31.75-.755.75-1.335 0-.4-.115-.725-.345-.975-.23-.25-.64-.48-1.23-.69-.59-.21-1.475-.445-2.655-.705-1.7-.36-2.955-.91-3.765-1.65-.81-.74-1.215-1.72-1.215-2.94 0-.8.24-1.555.72-2.265.48-.71 1.195-1.29 2.145-1.74.95-.45 2.085-.675 3.405-.675 1.36 0 2.53.215 3.51.645.98.43 1.725.945 2.235 1.545.51.6.765 1.13.765 1.59 0 .18-.065.335-.195.465a.635.635 0 0 1-.465.195h-2.25a.6.6 0 0 1-.51-.24c-.14-.1-.365-.285-.675-.555a3.827 3.827 0 0 0-1.035-.645c-.38-.16-.84-.24-1.38-.24-.74 0-1.31.16-1.71.48-.4.32-.6.74-.6 1.26 0 .36.095.66.285.9.19.24.575.465 1.155.675.58.21 1.45.425 2.61.645 3.6.7 5.4 2.27 5.4 4.71 0 1.42-.615 2.57-1.845 3.45-1.23.88-2.945 1.32-5.145 1.32-1.52 0-2.79-.23-3.81-.69zm16.83-1.035c-.92-.95-1.38-2.345-1.38-4.185v-6.78h-2.37c-.2 0-.37-.07-.51-.21a.694.694 0 0 1-.21-.51v-1.77c0-.2.07-.37.21-.51.14-.14.31-.21.51-.21h2.37V7.42c0-.22.07-.395.21-.525.14-.13.31-.195.51-.195h2.49c.22 0 .395.065.525.195s.195.305.195.525v4.98h3.75c.2 0 .37.07.51.21.14.14.21.31.21.51v1.77c0 .2-.07.37-.21.51-.14.14-.31.21-.51.21h-3.75v6.45c0 .86.15 1.51.45 1.95.3.44.79.66 1.47.66h2.1c.22 0 .395.065.525.195s.195.305.195.525v1.89c0 .2-.065.37-.195.51a.682.682 0 0 1-.525.21h-2.46c-1.82 0-3.19-.475-4.11-1.425zm10.17 1.215a.694.694 0 0 1-.21-.51V13.15c0-.22.07-.4.21-.54.14-.14.31-.21.51-.21h2.46c.22 0 .4.07.54.21.14.14.21.32.21.54v1.23c1-1.32 2.44-1.98 4.32-1.98h1.26c.22 0 .395.065.525.195s.195.305.195.525v2.19c0 .2-.065.37-.195.51a.682.682 0 0 1-.525.21h-2.37c-.94 0-1.68.27-2.22.81-.54.54-.81 1.28-.81 2.22v8.22c0 .2-.07.37-.21.51-.14.14-.31.21-.51.21h-2.67c-.2 0-.37-.07-.51-.21zm12.45-18.15a.694.694 0 0 1-.21-.51V6.94c0-.22.07-.4.21-.54.14-.14.31-.21.51-.21h2.76c.22 0 .4.07.54.21.14.14.21.32.21.54v2.19c0 .2-.075.37-.225.51a.745.745 0 0 1-.525.21h-2.76c-.2 0-.37-.07-.51-.21zm.12 18.15a.694.694 0 0 1-.21-.51V13.12c0-.22.07-.395.21-.525.14-.13.31-.195.51-.195h2.55c.2 0 .37.07.51.21.14.14.21.31.21.51v14.16c0 .2-.07.37-.21.51-.14.14-.31.21-.51.21h-2.55c-.2 0-.37-.07-.51-.21zm9.465-.105c-.85-.41-1.52-.965-2.01-1.665a3.94 3.94 0 0 1-.735-2.31c0-1.36.55-2.46 1.65-3.3 1.1-.84 2.61-1.41 4.53-1.71l4.11-.6v-.63c0-.86-.22-1.51-.66-1.95-.44-.44-1.14-.66-2.1-.66-.66 0-1.19.12-1.59.36-.4.24-.725.485-.975.735l-.495.495c-.08.24-.23.36-.45.36h-2.34a.662.662 0 0 1-.465-.18.622.622 0 0 1-.195-.48c.02-.5.265-1.065.735-1.695.47-.63 1.195-1.18 2.175-1.65.98-.47 2.19-.705 3.63-.705 2.36 0 4.08.53 5.16 1.59s1.62 2.45 1.62 4.17v9.42c0 .2-.065.37-.195.51a.682.682 0 0 1-.525.21h-2.49c-.2 0-.37-.07-.51-.21a.694.694 0 0 1-.21-.51v-1.17c-.44.64-1.06 1.165-1.86 1.575-.8.41-1.8.615-3 .615-1.02 0-1.955-.205-2.805-.615zm6.525-3.345c.7-.72 1.05-1.76 1.05-3.12v-.6l-3 .48c-2.3.36-3.45 1.13-3.45 2.31 0 .64.265 1.135.795 1.485.53.35 1.165.525 1.905.525 1.1 0 2-.36 2.7-1.08zm9.15 3.45a.694.694 0 0 1-.21-.51V7.42c0-.22.07-.395.21-.525.14-.13.31-.195.51-.195h2.52c.22 0 .395.065.525.195s.195.305.195.525v19.86c0 .2-.065.37-.195.51a.682.682 0 0 1-.525.21h-2.52c-.2 0-.37-.07-.51-.21z" fill="#020D26"/><path d="M17.49 8.47L.416 18.59v-8.436L17.479.033 34.583 10.14v8.427L17.49 8.47zm14.359 20.247l-14.37-8.503L3.15 28.717.417 27.092v-5.195l17.062-10.118 17.104 10.118v5.173l-2.734 1.647zm-14.36 3.456l-4.322 2.57-7.13-4.207 11.441-6.799 11.485 6.799-7.131 4.207-4.343-2.57z" fill="#FF5E14"/></g></svg>